<svg width="149" height="29" viewBox="0 0 149 29" fill="none" xmlns="http://www.w3.org/2000/svg">
<g filter="url(#filter0_d_607_2)">
<mask id="path-1-outside-1_607_2" maskUnits="userSpaceOnUse" x="3" y="-1" width="143" height="23" fill="black">
<rect fill="white" x="3" y="-1" width="143" height="23"/>
<path d="M4.408 0.647999H12.888C14.36 0.647999 15.4053 0.967999 16.024 1.608C16.6427 2.22667 16.952 3.09067 16.952 4.2V7.752C16.952 8.456 16.8453 9.07467 16.632 9.608C16.44 10.12 16.0667 10.4933 15.512 10.728C16.0667 10.9413 16.44 11.2827 16.632 11.752C16.8453 12.2 16.952 12.776 16.952 13.48V17.448C16.952 18.5573 16.6427 19.432 16.024 20.072C15.4053 20.6907 14.36 21 12.888 21H4.408V0.647999ZM12.44 17.064V13.128C12.44 12.8293 12.376 12.6267 12.248 12.52C12.12 12.392 11.896 12.328 11.576 12.328H8.952V17.864H11.576C11.896 17.864 12.12 17.8 12.248 17.672C12.376 17.544 12.44 17.3413 12.44 17.064ZM12.44 8.392V4.584C12.44 4.28533 12.376 4.08267 12.248 3.976C12.12 3.848 11.896 3.784 11.576 3.784H8.952V9.192H11.576C11.896 9.192 12.12 9.128 12.248 9C12.376 8.872 12.44 8.66933 12.44 8.392ZM29.7388 13.992V17.32H20.8747V13.992H29.7388ZM32.9068 21H28.2987L25.2587 5.384L22.2508 21H17.7067L22.3467 0.647999H28.1708L32.9068 21ZM33.8155 0.647999H38.3915V21H33.8155V0.647999ZM35.5115 21V17.64H44.2475V21H35.5115ZM45.0505 0.647999H49.6265V21H45.0505V0.647999ZM46.7465 21V17.64H55.4825V21H46.7465ZM56.2855 0.647999H60.8935V21H56.2855V0.647999ZM66.2375 8.968V12.328H58.3975V8.968H66.2375ZM67.1655 0.647999V4.008H58.1095V0.647999H67.1655ZM67.4215 17.64V21H58.1095V17.64H67.4215ZM73.1873 4.584V17.064C73.1873 17.3627 73.2513 17.576 73.3793 17.704C73.5073 17.8107 73.7313 17.864 74.0513 17.864H74.8833V21H72.6433C71.1926 21 70.1473 20.6907 69.5073 20.072C68.8886 19.432 68.5793 18.568 68.5793 17.48V4.2C68.5793 3.09067 68.8886 2.22667 69.5073 1.608C70.1473 0.967999 71.1926 0.647999 72.6433 0.647999H74.9793V3.784H74.0513C73.7313 3.784 73.5073 3.848 73.3793 3.976C73.2513 4.08267 73.1873 4.28533 73.1873 4.584ZM76.1953 7.784V4.584C76.1953 4.28533 76.1313 4.08267 76.0033 3.976C75.8966 3.848 75.6833 3.784 75.3633 3.784H74.4353V0.647999H76.7393C78.1899 0.647999 79.2246 0.967999 79.8433 1.608C80.4833 2.22667 80.8033 3.09067 80.8033 4.2V7.784H76.1953ZM76.1953 17.064V13.96H80.8033V17.48C80.8033 18.568 80.4833 19.432 79.8433 20.072C79.2246 20.6907 78.1899 21 76.7393 21H74.4353V17.864H75.3633C75.6833 17.864 75.8966 17.8107 76.0033 17.704C76.1313 17.576 76.1953 17.3627 76.1953 17.064ZM90.2175 11.272V4.808C90.2175 4.50933 90.1535 4.30667 90.0255 4.2C89.9188 4.072 89.7055 4.008 89.3855 4.008H88.2975V0.647999H90.7615C92.2122 0.647999 93.2468 0.967999 93.8655 1.608C94.4842 2.22667 94.7935 3.09067 94.7935 4.2V11.272H90.2175ZM90.2175 16.84V10.504H94.7935V17.448C94.7935 18.5573 94.4842 19.432 93.8655 20.072C93.2468 20.6907 92.2122 21 90.7615 21H88.2335V17.64H89.3855C89.7055 17.64 89.9188 17.576 90.0255 17.448C90.1535 17.32 90.2175 17.1173 90.2175 16.84ZM86.9855 4.808V11.272H82.4095V4.2C82.4095 3.09067 82.7188 2.22667 83.3375 1.608C83.9775 0.967999 85.0228 0.647999 86.4735 0.647999H88.9055V4.008H87.8495C87.5295 4.008 87.3055 4.072 87.1775 4.2C87.0495 4.30667 86.9855 4.50933 86.9855 4.808ZM86.9855 10.408V16.84C86.9855 17.1173 87.0495 17.32 87.1775 17.448C87.3055 17.576 87.5295 17.64 87.8495 17.64H88.8735V21H86.4735C85.0228 21 83.9775 20.6907 83.3375 20.072C82.7188 19.432 82.4095 18.5573 82.4095 17.448V10.408H86.9855ZM96.8655 0.647999H101.473V21H96.8655V0.647999ZM106.817 9.608V12.776H99.0095V9.608H106.817ZM107.841 0.647999V4.008H98.6895V0.647999H107.841ZM109.007 0.647999H113.615V21H109.007V0.647999ZM118.959 9.608V12.776H111.151V9.608H118.959ZM119.983 0.647999V4.008H110.831V0.647999H119.983ZM121.148 0.647999H125.756V21H121.148V0.647999ZM131.1 8.968V12.328H123.26V8.968H131.1ZM132.028 0.647999V4.008H122.972V0.647999H132.028ZM132.284 17.64V21H122.972V17.64H132.284ZM133.602 0.647999H138.21V21H133.602V0.647999ZM143.554 8.968V12.328H135.714V8.968H143.554ZM144.482 0.647999V4.008H135.426V0.647999H144.482ZM144.738 17.64V21H135.426V17.64H144.738Z"/>
</mask>
<path d="M4.408 0.647999H12.888C14.36 0.647999 15.4053 0.967999 16.024 1.608C16.6427 2.22667 16.952 3.09067 16.952 4.2V7.752C16.952 8.456 16.8453 9.07467 16.632 9.608C16.44 10.12 16.0667 10.4933 15.512 10.728C16.0667 10.9413 16.44 11.2827 16.632 11.752C16.8453 12.2 16.952 12.776 16.952 13.48V17.448C16.952 18.5573 16.6427 19.432 16.024 20.072C15.4053 20.6907 14.36 21 12.888 21H4.408V0.647999ZM12.44 17.064V13.128C12.44 12.8293 12.376 12.6267 12.248 12.52C12.12 12.392 11.896 12.328 11.576 12.328H8.952V17.864H11.576C11.896 17.864 12.12 17.8 12.248 17.672C12.376 17.544 12.44 17.3413 12.44 17.064ZM12.44 8.392V4.584C12.44 4.28533 12.376 4.08267 12.248 3.976C12.12 3.848 11.896 3.784 11.576 3.784H8.952V9.192H11.576C11.896 9.192 12.12 9.128 12.248 9C12.376 8.872 12.44 8.66933 12.44 8.392ZM29.7388 13.992V17.32H20.8747V13.992H29.7388ZM32.9068 21H28.2987L25.2587 5.384L22.2508 21H17.7067L22.3467 0.647999H28.1708L32.9068 21ZM33.8155 0.647999H38.3915V21H33.8155V0.647999ZM35.5115 21V17.64H44.2475V21H35.5115ZM45.0505 0.647999H49.6265V21H45.0505V0.647999ZM46.7465 21V17.64H55.4825V21H46.7465ZM56.2855 0.647999H60.8935V21H56.2855V0.647999ZM66.2375 8.968V12.328H58.3975V8.968H66.2375ZM67.1655 0.647999V4.008H58.1095V0.647999H67.1655ZM67.4215 17.64V21H58.1095V17.64H67.4215ZM73.1873 4.584V17.064C73.1873 17.3627 73.2513 17.576 73.3793 17.704C73.5073 17.8107 73.7313 17.864 74.0513 17.864H74.8833V21H72.6433C71.1926 21 70.1473 20.6907 69.5073 20.072C68.8886 19.432 68.5793 18.568 68.5793 17.48V4.2C68.5793 3.09067 68.8886 2.22667 69.5073 1.608C70.1473 0.967999 71.1926 0.647999 72.6433 0.647999H74.9793V3.784H74.0513C73.7313 3.784 73.5073 3.848 73.3793 3.976C73.2513 4.08267 73.1873 4.28533 73.1873 4.584ZM76.1953 7.784V4.584C76.1953 4.28533 76.1313 4.08267 76.0033 3.976C75.8966 3.848 75.6833 3.784 75.3633 3.784H74.4353V0.647999H76.7393C78.1899 0.647999 79.2246 0.967999 79.8433 1.608C80.4833 2.22667 80.8033 3.09067 80.8033 4.2V7.784H76.1953ZM76.1953 17.064V13.96H80.8033V17.48C80.8033 18.568 80.4833 19.432 79.8433 20.072C79.2246 20.6907 78.1899 21 76.7393 21H74.4353V17.864H75.3633C75.6833 17.864 75.8966 17.8107 76.0033 17.704C76.1313 17.576 76.1953 17.3627 76.1953 17.064ZM90.2175 11.272V4.808C90.2175 4.50933 90.1535 4.30667 90.0255 4.2C89.9188 4.072 89.7055 4.008 89.3855 4.008H88.2975V0.647999H90.7615C92.2122 0.647999 93.2468 0.967999 93.8655 1.608C94.4842 2.22667 94.7935 3.09067 94.7935 4.2V11.272H90.2175ZM90.2175 16.84V10.504H94.7935V17.448C94.7935 18.5573 94.4842 19.432 93.8655 20.072C93.2468 20.6907 92.2122 21 90.7615 21H88.2335V17.64H89.3855C89.7055 17.64 89.9188 17.576 90.0255 17.448C90.1535 17.32 90.2175 17.1173 90.2175 16.84ZM86.9855 4.808V11.272H82.4095V4.2C82.4095 3.09067 82.7188 2.22667 83.3375 1.608C83.9775 0.967999 85.0228 0.647999 86.4735 0.647999H88.9055V4.008H87.8495C87.5295 4.008 87.3055 4.072 87.1775 4.2C87.0495 4.30667 86.9855 4.50933 86.9855 4.808ZM86.9855 10.408V16.84C86.9855 17.1173 87.0495 17.32 87.1775 17.448C87.3055 17.576 87.5295 17.64 87.8495 17.64H88.8735V21H86.4735C85.0228 21 83.9775 20.6907 83.3375 20.072C82.7188 19.432 82.4095 18.5573 82.4095 17.448V10.408H86.9855ZM96.8655 0.647999H101.473V21H96.8655V0.647999ZM106.817 9.608V12.776H99.0095V9.608H106.817ZM107.841 0.647999V4.008H98.6895V0.647999H107.841ZM109.007 0.647999H113.615V21H109.007V0.647999ZM118.959 9.608V12.776H111.151V9.608H118.959ZM119.983 0.647999V4.008H110.831V0.647999H119.983ZM121.148 0.647999H125.756V21H121.148V0.647999ZM131.1 8.968V12.328H123.26V8.968H131.1ZM132.028 0.647999V4.008H122.972V0.647999H132.028ZM132.284 17.64V21H122.972V17.64H132.284ZM133.602 0.647999H138.21V21H133.602V0.647999ZM143.554 8.968V12.328H135.714V8.968H143.554ZM144.482 0.647999V4.008H135.426V0.647999H144.482ZM144.738 17.64V21H135.426V17.64H144.738Z" fill="white"/>
<path d="M4.408 0.647999V-0.352001H3.408V0.647999H4.408ZM16.024 1.608L15.305 2.30302L15.3109 2.30911L15.3169 2.31511L16.024 1.608ZM16.632 9.608L15.7035 9.23661L15.6995 9.2467L15.6957 9.25688L16.632 9.608ZM15.512 10.728L15.1224 9.80703L12.8411 10.7722L15.153 11.6613L15.512 10.728ZM16.632 11.752L15.7065 12.1306L15.7171 12.1566L15.7291 12.1819L16.632 11.752ZM16.024 20.072L16.7311 20.7791L16.7371 20.7731L16.743 20.767L16.024 20.072ZM4.408 21H3.408V22H4.408V21ZM12.248 12.52L11.5409 13.2271L11.573 13.2592L11.6078 13.2882L12.248 12.52ZM8.952 12.328V11.328H7.952V12.328H8.952ZM8.952 17.864H7.952V18.864H8.952V17.864ZM12.248 17.672L11.5409 16.9649L11.5409 16.9649L12.248 17.672ZM12.248 3.976L11.5409 4.6831L11.573 4.71518L11.6078 4.74422L12.248 3.976ZM8.952 3.784V2.784H7.952V3.784H8.952ZM8.952 9.192H7.952V10.192H8.952V9.192ZM12.248 9L11.5409 8.29289L11.5409 8.29289L12.248 9ZM4.408 1.648H12.888V-0.352001H4.408V1.648ZM12.888 1.648C14.2579 1.648 14.9665 1.95286 15.305 2.30302L16.743 0.912978C15.8441 -0.01686 14.4621 -0.352001 12.888 -0.352001V1.648ZM15.3169 2.31511C15.7011 2.69931 15.952 3.28118 15.952 4.2H17.952C17.952 2.90015 17.5842 1.75403 16.7311 0.900893L15.3169 2.31511ZM15.952 4.2V7.752H17.952V4.2H15.952ZM15.952 7.752C15.952 8.35662 15.8603 8.84475 15.7035 9.23661L17.5605 9.97939C17.8304 9.30458 17.952 8.55538 17.952 7.752H15.952ZM15.6957 9.25688C15.6103 9.48448 15.4527 9.66727 15.1224 9.80703L15.9016 11.649C16.6806 11.3194 17.2697 10.7555 17.5683 9.95912L15.6957 9.25688ZM15.153 11.6613C15.4986 11.7943 15.6368 11.9605 15.7065 12.1306L17.5575 11.3734C17.2432 10.6048 16.6347 10.0884 15.871 9.79465L15.153 11.6613ZM15.7291 12.1819C15.8575 12.4516 15.952 12.8667 15.952 13.48H17.952C17.952 12.6853 17.8331 11.9484 17.5349 11.3221L15.7291 12.1819ZM15.952 13.48V17.448H17.952V13.48H15.952ZM15.952 17.448C15.952 18.3652 15.7016 18.9667 15.305 19.377L16.743 20.767C17.5837 19.8973 17.952 18.7495 17.952 17.448H15.952ZM15.3169 19.3649C14.9791 19.7026 14.2652 20 12.888 20V22C14.4548 22 15.8315 21.6787 16.7311 20.7791L15.3169 19.3649ZM12.888 20H4.408V22H12.888V20ZM5.408 21V0.647999H3.408V21H5.408ZM13.44 17.064V13.128H11.44V17.064H13.44ZM13.44 13.128C13.44 12.754 13.3722 12.1551 12.8882 11.7518L11.6078 13.2882C11.4892 13.1894 11.4483 13.0844 11.4384 13.0531C11.43 13.0265 11.44 13.0428 11.44 13.128H13.44ZM12.9551 11.8129C12.5392 11.397 11.9737 11.328 11.576 11.328V13.328C11.6233 13.328 11.6577 13.3304 11.6812 13.3331C11.7048 13.3359 11.713 13.3386 11.7093 13.3375C11.7036 13.3359 11.6267 13.3129 11.5409 13.2271L12.9551 11.8129ZM11.576 11.328H8.952V13.328H11.576V11.328ZM7.952 12.328V17.864H9.952V12.328H7.952ZM8.952 18.864H11.576V16.864H8.952V18.864ZM11.576 18.864C11.9737 18.864 12.5392 18.795 12.9551 18.3791L11.5409 16.9649C11.6267 16.8791 11.7036 16.8561 11.7093 16.8545C11.713 16.8534 11.7048 16.8561 11.6812 16.8588C11.6577 16.8616 11.6233 16.864 11.576 16.864V18.864ZM12.9551 18.3791C13.3499 17.9844 13.44 17.4683 13.44 17.064H11.44C11.44 17.1298 11.4319 17.1434 11.4384 17.1229C11.4464 17.0977 11.4731 17.0327 11.5409 16.9649L12.9551 18.3791ZM13.44 8.392V4.584H11.44V8.392H13.44ZM13.44 4.584C13.44 4.20997 13.3722 3.61109 12.8882 3.20778L11.6078 4.74422C11.4892 4.64541 11.4483 4.54044 11.4384 4.50913C11.43 4.48246 11.44 4.49885 11.44 4.584H13.44ZM12.9551 3.2689C12.5392 2.85297 11.9737 2.784 11.576 2.784V4.784C11.6233 4.784 11.6577 4.78639 11.6812 4.78915C11.7048 4.79193 11.713 4.79459 11.7093 4.79352C11.7036 4.7919 11.6267 4.76894 11.5409 4.6831L12.9551 3.2689ZM11.576 2.784H8.952V4.784H11.576V2.784ZM7.952 3.784V9.192H9.952V3.784H7.952ZM8.952 10.192H11.576V8.192H8.952V10.192ZM11.576 10.192C11.9737 10.192 12.5392 10.123 12.9551 9.7071L11.5409 8.29289C11.6267 8.20706 11.7036 8.1841 11.7093 8.18248C11.713 8.18141 11.7048 8.18407 11.6812 8.18685C11.6577 8.1896 11.6233 8.192 11.576 8.192V10.192ZM12.9551 9.70711C13.3499 9.31236 13.44 8.79629 13.44 8.392H11.44C11.44 8.45783 11.4319 8.47144 11.4384 8.45087C11.4464 8.42569 11.4731 8.36069 11.5409 8.29289L12.9551 9.70711ZM29.7388 13.992H30.7388V12.992H29.7388V13.992ZM29.7388 17.32V18.32H30.7388V17.32H29.7388ZM20.8747 17.32H19.8747V18.32H20.8747V17.32ZM20.8747 13.992V12.992H19.8747V13.992H20.8747ZM32.9068 21V22H34.1662L33.8807 20.7734L32.9068 21ZM28.2987 21L27.3172 21.1911L27.4746 22H28.2987V21ZM25.2587 5.384L26.2403 5.19291L24.2768 5.19485L25.2587 5.384ZM22.2508 21V22H23.0765L23.2327 21.1891L22.2508 21ZM17.7067 21L16.7318 20.7777L16.4531 22H17.7067V21ZM22.3467 0.647999V-0.352001H21.5491L21.3718 0.425715L22.3467 0.647999ZM28.1708 0.647999L29.1447 0.42135L28.9648 -0.352001H28.1708V0.647999ZM28.7388 13.992V17.32H30.7388V13.992H28.7388ZM29.7388 16.32H20.8747V18.32H29.7388V16.32ZM21.8747 17.32V13.992H19.8747V17.32H21.8747ZM20.8747 14.992H29.7388V12.992H20.8747V14.992ZM32.9068 20H28.2987V22H32.9068V20ZM29.2803 20.8089L26.2403 5.19291L24.2772 5.57508L27.3172 21.1911L29.2803 20.8089ZM24.2768 5.19485L21.2688 20.8109L23.2327 21.1891L26.2407 5.57314L24.2768 5.19485ZM22.2508 20H17.7067V22H22.2508V20ZM18.6817 21.2223L23.3217 0.870282L21.3718 0.425715L16.7318 20.7777L18.6817 21.2223ZM22.3467 1.648H28.1708V-0.352001H22.3467V1.648ZM27.1968 0.874647L31.9328 21.2266L33.8807 20.7734L29.1447 0.42135L27.1968 0.874647ZM33.8155 0.647999V-0.352001H32.8155V0.647999H33.8155ZM38.3915 0.647999H39.3915V-0.352001H38.3915V0.647999ZM38.3915 21V22H39.3915V21H38.3915ZM33.8155 21H32.8155V22H33.8155V21ZM35.5115 21H34.5115V22H35.5115V21ZM35.5115 17.64V16.64H34.5115V17.64H35.5115ZM44.2475 17.64H45.2475V16.64H44.2475V17.64ZM44.2475 21V22H45.2475V21H44.2475ZM33.8155 1.648H38.3915V-0.352001H33.8155V1.648ZM37.3915 0.647999V21H39.3915V0.647999H37.3915ZM38.3915 20H33.8155V22H38.3915V20ZM34.8155 21V0.647999H32.8155V21H34.8155ZM36.5115 21V17.64H34.5115V21H36.5115ZM35.5115 18.64H44.2475V16.64H35.5115V18.64ZM43.2475 17.64V21H45.2475V17.64H43.2475ZM44.2475 20H35.5115V22H44.2475V20ZM45.0505 0.647999V-0.352001H44.0505V0.647999H45.0505ZM49.6265 0.647999H50.6265V-0.352001H49.6265V0.647999ZM49.6265 21V22H50.6265V21H49.6265ZM45.0505 21H44.0505V22H45.0505V21ZM46.7465 21H45.7465V22H46.7465V21ZM46.7465 17.64V16.64H45.7465V17.64H46.7465ZM55.4825 17.64H56.4825V16.64H55.4825V17.64ZM55.4825 21V22H56.4825V21H55.4825ZM45.0505 1.648H49.6265V-0.352001H45.0505V1.648ZM48.6265 0.647999V21H50.6265V0.647999H48.6265ZM49.6265 20H45.0505V22H49.6265V20ZM46.0505 21V0.647999H44.0505V21H46.0505ZM47.7465 21V17.64H45.7465V21H47.7465ZM46.7465 18.64H55.4825V16.64H46.7465V18.64ZM54.4825 17.64V21H56.4825V17.64H54.4825ZM55.4825 20H46.7465V22H55.4825V20ZM56.2855 0.647999V-0.352001H55.2855V0.647999H56.2855ZM60.8935 0.647999H61.8935V-0.352001H60.8935V0.647999ZM60.8935 21V22H61.8935V21H60.8935ZM56.2855 21H55.2855V22H56.2855V21ZM66.2375 8.968H67.2375V7.968H66.2375V8.968ZM66.2375 12.328V13.328H67.2375V12.328H66.2375ZM58.3975 12.328H57.3975V13.328H58.3975V12.328ZM58.3975 8.968V7.968H57.3975V8.968H58.3975ZM67.1655 0.647999H68.1655V-0.352001H67.1655V0.647999ZM67.1655 4.008V5.008H68.1655V4.008H67.1655ZM58.1095 4.008H57.1095V5.008H58.1095V4.008ZM58.1095 0.647999V-0.352001H57.1095V0.647999H58.1095ZM67.4215 17.64H68.4215V16.64H67.4215V17.64ZM67.4215 21V22H68.4215V21H67.4215ZM58.1095 21H57.1095V22H58.1095V21ZM58.1095 17.64V16.64H57.1095V17.64H58.1095ZM56.2855 1.648H60.8935V-0.352001H56.2855V1.648ZM59.8935 0.647999V21H61.8935V0.647999H59.8935ZM60.8935 20H56.2855V22H60.8935V20ZM57.2855 21V0.647999H55.2855V21H57.2855ZM65.2375 8.968V12.328H67.2375V8.968H65.2375ZM66.2375 11.328H58.3975V13.328H66.2375V11.328ZM59.3975 12.328V8.968H57.3975V12.328H59.3975ZM58.3975 9.968H66.2375V7.968H58.3975V9.968ZM66.1655 0.647999V4.008H68.1655V0.647999H66.1655ZM67.1655 3.008H58.1095V5.008H67.1655V3.008ZM59.1095 4.008V0.647999H57.1095V4.008H59.1095ZM58.1095 1.648H67.1655V-0.352001H58.1095V1.648ZM66.4215 17.64V21H68.4215V17.64H66.4215ZM67.4215 20H58.1095V22H67.4215V20ZM59.1095 21V17.64H57.1095V21H59.1095ZM58.1095 18.64H67.4215V16.64H58.1095V18.64ZM73.3793 17.704L72.6721 18.4111L72.7042 18.4432L72.7391 18.4722L73.3793 17.704ZM74.8833 17.864H75.8833V16.864H74.8833V17.864ZM74.8833 21V22H75.8833V21H74.8833ZM69.5073 20.072L68.7883 20.767L68.8 20.7792L68.8122 20.791L69.5073 20.072ZM69.5073 1.608L70.2144 2.31511L70.2144 2.31511L69.5073 1.608ZM74.9793 0.647999H75.9793V-0.352001H74.9793V0.647999ZM74.9793 3.784V4.784H75.9793V3.784H74.9793ZM73.3793 3.976L74.0194 4.74422L74.0543 4.71518L74.0864 4.6831L73.3793 3.976ZM76.1953 7.784H75.1953V8.784H76.1953V7.784ZM76.0033 3.976L75.235 4.61618L75.2932 4.68602L75.3631 4.74422L76.0033 3.976ZM74.4353 3.784H73.4353V4.784H74.4353V3.784ZM74.4353 0.647999V-0.352001H73.4353V0.647999H74.4353ZM79.8433 1.608L79.1243 2.30302L79.136 2.31521L79.1482 2.32699L79.8433 1.608ZM80.8033 7.784V8.784H81.8033V7.784H80.8033ZM76.1953 13.96V12.96H75.1953V13.96H76.1953ZM80.8033 13.96H81.8033V12.96H80.8033V13.96ZM79.8433 20.072L80.5504 20.7791L80.5504 20.7791L79.8433 20.072ZM74.4353 21H73.4353V22H74.4353V21ZM74.4353 17.864V16.864H73.4353V17.864H74.4353ZM76.0033 17.704L76.7104 18.4111L76.7104 18.4111L76.0033 17.704ZM72.1873 4.584V17.064H74.1873V4.584H72.1873ZM72.1873 17.064C72.1873 17.4642 72.2661 18.005 72.6721 18.4111L74.0864 16.9969C74.1634 17.0739 74.1883 17.1449 74.1931 17.1607C74.1954 17.1683 74.1937 17.1651 74.1915 17.148C74.1894 17.1309 74.1873 17.1035 74.1873 17.064H72.1873ZM72.7391 18.4722C73.1509 18.8154 73.6834 18.864 74.0513 18.864V16.864C73.9985 16.864 73.9575 16.8618 73.9268 16.8588C73.8959 16.8557 73.8795 16.8523 73.8749 16.8512C73.87 16.85 73.8826 16.8525 73.9071 16.8636C73.9318 16.8749 73.9727 16.8968 74.0194 16.9358L72.7391 18.4722ZM74.0513 18.864H74.8833V16.864H74.0513V18.864ZM73.8833 17.864V21H75.8833V17.864H73.8833ZM74.8833 20H72.6433V22H74.8833V20ZM72.6433 20C71.2968 20 70.5681 19.7066 70.2023 19.353L68.8122 20.791C69.7264 21.6747 71.0884 22 72.6433 22V20ZM70.2262 19.377C69.8262 18.9631 69.5793 18.3697 69.5793 17.48H67.5793C67.5793 18.7663 67.951 19.9009 68.7883 20.767L70.2262 19.377ZM69.5793 17.48V4.2H67.5793V17.48H69.5793ZM69.5793 4.2C69.5793 3.28118 69.8302 2.69931 70.2144 2.31511L68.8001 0.900893C67.947 1.75403 67.5793 2.90015 67.5793 4.2H69.5793ZM70.2144 2.31511C70.5806 1.94883 71.3041 1.648 72.6433 1.648V-0.352001C71.0811 -0.352001 69.7139 -0.0128317 68.8001 0.900893L70.2144 2.31511ZM72.6433 1.648H74.9793V-0.352001H72.6433V1.648ZM73.9793 0.647999V3.784H75.9793V0.647999H73.9793ZM74.9793 2.784H74.0513V4.784H74.9793V2.784ZM74.0513 2.784C73.6535 2.784 73.0881 2.85297 72.6721 3.2689L74.0864 4.6831C74.0005 4.76894 73.9236 4.7919 73.918 4.79352C73.9142 4.79459 73.9225 4.79193 73.9461 4.78915C73.9695 4.78639 74.004 4.784 74.0513 4.784V2.784ZM72.7391 3.20778C72.2551 3.61109 72.1873 4.20997 72.1873 4.584H74.1873C74.1873 4.49885 74.1973 4.48246 74.1888 4.50913C74.1789 4.54044 74.138 4.64541 74.0194 4.74422L72.7391 3.20778ZM77.1953 7.784V4.584H75.1953V7.784H77.1953ZM77.1953 4.584C77.1953 4.20997 77.1274 3.61109 76.6434 3.20778L75.3631 4.74422C75.2445 4.64541 75.2036 4.54044 75.1937 4.50913C75.1852 4.48246 75.1953 4.49885 75.1953 4.584H77.1953ZM76.7715 3.33582C76.3587 2.84052 75.7313 2.784 75.3633 2.784V4.784C75.4645 4.784 75.4934 4.79506 75.4759 4.78982C75.4565 4.78401 75.3432 4.74596 75.235 4.61618L76.7715 3.33582ZM75.3633 2.784H74.4353V4.784H75.3633V2.784ZM75.4353 3.784V0.647999H73.4353V3.784H75.4353ZM74.4353 1.648H76.7393V-0.352001H74.4353V1.648ZM76.7393 1.648C78.0827 1.648 78.7836 1.9506 79.1243 2.30302L80.5622 0.912978C79.6656 -0.014599 78.2972 -0.352001 76.7393 -0.352001V1.648ZM79.1482 2.32699C79.5476 2.71304 79.8033 3.2908 79.8033 4.2H81.8033C81.8033 2.89053 81.4189 1.74029 80.5383 0.889011L79.1482 2.32699ZM79.8033 4.2V7.784H81.8033V4.2H79.8033ZM80.8033 6.784H76.1953V8.784H80.8033V6.784ZM77.1953 17.064V13.96H75.1953V17.064H77.1953ZM76.1953 14.96H80.8033V12.96H76.1953V14.96ZM79.8033 13.96V17.48H81.8033V13.96H79.8033ZM79.8033 17.48C79.8033 18.3601 79.5516 18.9494 79.1361 19.3649L80.5504 20.7791C81.4149 19.9146 81.8033 18.7759 81.8033 17.48H79.8033ZM79.1361 19.3649C78.7963 19.7048 78.0901 20 76.7393 20V22C78.2897 22 79.6529 21.6766 80.5504 20.7791L79.1361 19.3649ZM76.7393 20H74.4353V22H76.7393V20ZM75.4353 21V17.864H73.4353V21H75.4353ZM74.4353 18.864H75.3633V16.864H74.4353V18.864ZM75.3633 18.864C75.5715 18.864 75.7928 18.8474 76.0058 18.7941C76.2127 18.7424 76.4832 18.6383 76.7104 18.4111L75.2961 16.9969C75.3581 16.9349 75.4173 16.899 75.456 16.8796C75.4941 16.8605 75.5187 16.8544 75.5207 16.8539C75.5232 16.8532 75.5122 16.8561 75.4837 16.859C75.4557 16.8618 75.4162 16.864 75.3633 16.864V18.864ZM76.7104 18.4111C77.1164 18.005 77.1953 17.4642 77.1953 17.064H75.1953C75.1953 17.1035 75.1931 17.1309 75.191 17.148C75.1888 17.1651 75.1871 17.1683 75.1894 17.1607C75.1942 17.1449 75.2191 17.0739 75.2961 16.9969L76.7104 18.4111ZM90.2175 11.272H89.2175V12.272H90.2175V11.272ZM90.0255 4.2L89.2573 4.84018L89.3155 4.91002L89.3853 4.96822L90.0255 4.2ZM88.2975 4.008H87.2975V5.008H88.2975V4.008ZM88.2975 0.647999V-0.352001H87.2975V0.647999H88.2975ZM93.8655 1.608L93.1465 2.30302L93.1524 2.30911L93.1584 2.31511L93.8655 1.608ZM94.7935 11.272V12.272H95.7935V11.272H94.7935ZM90.2175 10.504V9.504H89.2175V10.504H90.2175ZM94.7935 10.504H95.7935V9.504H94.7935V10.504ZM93.8655 20.072L94.5726 20.7791L94.5786 20.7731L94.5845 20.767L93.8655 20.072ZM88.2335 21H87.2335V22H88.2335V21ZM88.2335 17.64V16.64H87.2335V17.64H88.2335ZM90.0255 17.448L89.3184 16.7409L89.2863 16.773L89.2573 16.8078L90.0255 17.448ZM86.9855 11.272V12.272H87.9855V11.272H86.9855ZM82.4095 11.272H81.4095V12.272H82.4095V11.272ZM83.3375 1.608L84.0446 2.31511L84.0446 2.31511L83.3375 1.608ZM88.9055 0.647999H89.9055V-0.352001H88.9055V0.647999ZM88.9055 4.008V5.008H89.9055V4.008H88.9055ZM87.1775 4.2L87.8177 4.96822L87.8525 4.93918L87.8846 4.90711L87.1775 4.2ZM86.9855 10.408H87.9855V9.408H86.9855V10.408ZM87.1775 17.448L87.8846 16.7409L87.8846 16.7409L87.1775 17.448ZM88.8735 17.64H89.8735V16.64H88.8735V17.64ZM88.8735 21V22H89.8735V21H88.8735ZM83.3375 20.072L82.6185 20.767L82.6303 20.7792L82.6425 20.791L83.3375 20.072ZM82.4095 10.408V9.408H81.4095V10.408H82.4095ZM91.2175 11.272V4.808H89.2175V11.272H91.2175ZM91.2175 4.808C91.2175 4.43396 91.1497 3.83509 90.6657 3.43178L89.3853 4.96822C89.2668 4.86941 89.2258 4.76444 89.2159 4.73313C89.2075 4.70646 89.2175 4.72285 89.2175 4.808H91.2175ZM90.7937 3.55981C90.381 3.06452 89.7535 3.008 89.3855 3.008V5.008C89.4868 5.008 89.5156 5.01906 89.4982 5.01383C89.4788 5.00801 89.3654 4.96997 89.2573 4.84018L90.7937 3.55981ZM89.3855 3.008H88.2975V5.008H89.3855V3.008ZM89.2975 4.008V0.647999H87.2975V4.008H89.2975ZM88.2975 1.648H90.7615V-0.352001H88.2975V1.648ZM90.7615 1.648C92.1049 1.648 92.8058 1.9506 93.1465 2.30302L94.5845 0.912978C93.6878 -0.0145989 92.3194 -0.352001 90.7615 -0.352001V1.648ZM93.1584 2.31511C93.5426 2.69931 93.7935 3.28118 93.7935 4.2H95.7935C95.7935 2.90015 95.4257 1.75403 94.5726 0.900893L93.1584 2.31511ZM93.7935 4.2V11.272H95.7935V4.2H93.7935ZM94.7935 10.272H90.2175V12.272H94.7935V10.272ZM91.2175 16.84V10.504H89.2175V16.84H91.2175ZM90.2175 11.504H94.7935V9.504H90.2175V11.504ZM93.7935 10.504V17.448H95.7935V10.504H93.7935ZM93.7935 17.448C93.7935 18.3652 93.5431 18.9667 93.1465 19.377L94.5845 20.767C95.4252 19.8973 95.7935 18.7495 95.7935 17.448H93.7935ZM93.1584 19.3649C92.8185 19.7048 92.1124 20 90.7615 20V22C92.312 22 93.6752 21.6766 94.5726 20.7791L93.1584 19.3649ZM90.7615 20H88.2335V22H90.7615V20ZM89.2335 21V17.64H87.2335V21H89.2335ZM88.2335 18.64H89.3855V16.64H88.2335V18.64ZM89.3855 18.64C89.7535 18.64 90.381 18.5835 90.7937 18.0882L89.2573 16.8078C89.3654 16.678 89.4788 16.64 89.4982 16.6342C89.5156 16.6289 89.4868 16.64 89.3855 16.64V18.64ZM90.7326 18.1551C91.1274 17.7604 91.2175 17.2443 91.2175 16.84H89.2175C89.2175 16.9058 89.2094 16.9194 89.2159 16.8989C89.2239 16.8737 89.2506 16.8087 89.3184 16.7409L90.7326 18.1551ZM85.9855 4.808V11.272H87.9855V4.808H85.9855ZM86.9855 10.272H82.4095V12.272H86.9855V10.272ZM83.4095 11.272V4.2H81.4095V11.272H83.4095ZM83.4095 4.2C83.4095 3.28118 83.6604 2.69931 84.0446 2.31511L82.6304 0.900893C81.7773 1.75403 81.4095 2.90015 81.4095 4.2H83.4095ZM84.0446 2.31511C84.4109 1.94883 85.1343 1.648 86.4735 1.648V-0.352001C84.9114 -0.352001 83.5441 -0.0128317 82.6304 0.900893L84.0446 2.31511ZM86.4735 1.648H88.9055V-0.352001H86.4735V1.648ZM87.9055 0.647999V4.008H89.9055V0.647999H87.9055ZM88.9055 3.008H87.8495V5.008H88.9055V3.008ZM87.8495 3.008C87.4518 3.008 86.8863 3.07697 86.4704 3.49289L87.8846 4.90711C87.7988 4.99294 87.7219 5.0159 87.7162 5.01752C87.7125 5.01859 87.7207 5.01593 87.7443 5.01315C87.7678 5.0104 87.8022 5.008 87.8495 5.008V3.008ZM86.5373 3.43178C86.0533 3.83509 85.9855 4.43396 85.9855 4.808H87.9855C87.9855 4.72285 87.9955 4.70646 87.9871 4.73313C87.9772 4.76444 87.9363 4.86941 87.8177 4.96822L86.5373 3.43178ZM85.9855 10.408V16.84H87.9855V10.408H85.9855ZM85.9855 16.84C85.9855 17.2443 86.0757 17.7604 86.4704 18.1551L87.8846 16.7409C87.9524 16.8087 87.9791 16.8737 87.9871 16.8989C87.9936 16.9194 87.9855 16.9058 87.9855 16.84H85.9855ZM86.4704 18.1551C86.8863 18.571 87.4518 18.64 87.8495 18.64V16.64C87.8022 16.64 87.7678 16.6376 87.7443 16.6348C87.7207 16.6321 87.7125 16.6294 87.7162 16.6305C87.7219 16.6321 87.7988 16.6551 87.8846 16.7409L86.4704 18.1551ZM87.8495 18.64H88.8735V16.64H87.8495V18.64ZM87.8735 17.64V21H89.8735V17.64H87.8735ZM88.8735 20H86.4735V22H88.8735V20ZM86.4735 20C85.127 20 84.3983 19.7066 84.0325 19.353L82.6425 20.791C83.5567 21.6747 84.9186 22 86.4735 22V20ZM84.0565 19.377C83.6599 18.9667 83.4095 18.3652 83.4095 17.448H81.4095C81.4095 18.7495 81.7778 19.8973 82.6185 20.767L84.0565 19.377ZM83.4095 17.448V10.408H81.4095V17.448H83.4095ZM82.4095 11.408H86.9855V9.408H82.4095V11.408ZM96.8655 0.647999V-0.352001H95.8655V0.647999H96.8655ZM101.473 0.647999H102.473V-0.352001H101.473V0.647999ZM101.473 21V22H102.473V21H101.473ZM96.8655 21H95.8655V22H96.8655V21ZM106.817 9.608H107.817V8.608H106.817V9.608ZM106.817 12.776V13.776H107.817V12.776H106.817ZM99.0095 12.776H98.0095V13.776H99.0095V12.776ZM99.0095 9.608V8.608H98.0095V9.608H99.0095ZM107.841 0.647999H108.841V-0.352001H107.841V0.647999ZM107.841 4.008V5.008H108.841V4.008H107.841ZM98.6895 4.008H97.6895V5.008H98.6895V4.008ZM98.6895 0.647999V-0.352001H97.6895V0.647999H98.6895ZM96.8655 1.648H101.473V-0.352001H96.8655V1.648ZM100.473 0.647999V21H102.473V0.647999H100.473ZM101.473 20H96.8655V22H101.473V20ZM97.8655 21V0.647999H95.8655V21H97.8655ZM105.817 9.608V12.776H107.817V9.608H105.817ZM106.817 11.776H99.0095V13.776H106.817V11.776ZM100.009 12.776V9.608H98.0095V12.776H100.009ZM99.0095 10.608H106.817V8.608H99.0095V10.608ZM106.841 0.647999V4.008H108.841V0.647999H106.841ZM107.841 3.008H98.6895V5.008H107.841V3.008ZM99.6895 4.008V0.647999H97.6895V4.008H99.6895ZM98.6895 1.648H107.841V-0.352001H98.6895V1.648ZM109.007 0.647999V-0.352001H108.007V0.647999H109.007ZM113.615 0.647999H114.615V-0.352001H113.615V0.647999ZM113.615 21V22H114.615V21H113.615ZM109.007 21H108.007V22H109.007V21ZM118.959 9.608H119.959V8.608H118.959V9.608ZM118.959 12.776V13.776H119.959V12.776H118.959ZM111.151 12.776H110.151V13.776H111.151V12.776ZM111.151 9.608V8.608H110.151V9.608H111.151ZM119.983 0.647999H120.983V-0.352001H119.983V0.647999ZM119.983 4.008V5.008H120.983V4.008H119.983ZM110.831 4.008H109.831V5.008H110.831V4.008ZM110.831 0.647999V-0.352001H109.831V0.647999H110.831ZM109.007 1.648H113.615V-0.352001H109.007V1.648ZM112.615 0.647999V21H114.615V0.647999H112.615ZM113.615 20H109.007V22H113.615V20ZM110.007 21V0.647999H108.007V21H110.007ZM117.959 9.608V12.776H119.959V9.608H117.959ZM118.959 11.776H111.151V13.776H118.959V11.776ZM112.151 12.776V9.608H110.151V12.776H112.151ZM111.151 10.608H118.959V8.608H111.151V10.608ZM118.983 0.647999V4.008H120.983V0.647999H118.983ZM119.983 3.008H110.831V5.008H119.983V3.008ZM111.831 4.008V0.647999H109.831V4.008H111.831ZM110.831 1.648H119.983V-0.352001H110.831V1.648ZM121.148 0.647999V-0.352001H120.148V0.647999H121.148ZM125.756 0.647999H126.756V-0.352001H125.756V0.647999ZM125.756 21V22H126.756V21H125.756ZM121.148 21H120.148V22H121.148V21ZM131.1 8.968H132.1V7.968H131.1V8.968ZM131.1 12.328V13.328H132.1V12.328H131.1ZM123.26 12.328H122.26V13.328H123.26V12.328ZM123.26 8.968V7.968H122.26V8.968H123.26ZM132.028 0.647999H133.028V-0.352001H132.028V0.647999ZM132.028 4.008V5.008H133.028V4.008H132.028ZM122.972 4.008H121.972V5.008H122.972V4.008ZM122.972 0.647999V-0.352001H121.972V0.647999H122.972ZM132.284 17.64H133.284V16.64H132.284V17.64ZM132.284 21V22H133.284V21H132.284ZM122.972 21H121.972V22H122.972V21ZM122.972 17.64V16.64H121.972V17.64H122.972ZM121.148 1.648H125.756V-0.352001H121.148V1.648ZM124.756 0.647999V21H126.756V0.647999H124.756ZM125.756 20H121.148V22H125.756V20ZM122.148 21V0.647999H120.148V21H122.148ZM130.1 8.968V12.328H132.1V8.968H130.1ZM131.1 11.328H123.26V13.328H131.1V11.328ZM124.26 12.328V8.968H122.26V12.328H124.26ZM123.26 9.968H131.1V7.968H123.26V9.968ZM131.028 0.647999V4.008H133.028V0.647999H131.028ZM132.028 3.008H122.972V5.008H132.028V3.008ZM123.972 4.008V0.647999H121.972V4.008H123.972ZM122.972 1.648H132.028V-0.352001H122.972V1.648ZM131.284 17.64V21H133.284V17.64H131.284ZM132.284 20H122.972V22H132.284V20ZM123.972 21V17.64H121.972V21H123.972ZM122.972 18.64H132.284V16.64H122.972V18.64ZM133.602 0.647999V-0.352001H132.602V0.647999H133.602ZM138.21 0.647999H139.21V-0.352001H138.21V0.647999ZM138.21 21V22H139.21V21H138.21ZM133.602 21H132.602V22H133.602V21ZM143.554 8.968H144.554V7.968H143.554V8.968ZM143.554 12.328V13.328H144.554V12.328H143.554ZM135.714 12.328H134.714V13.328H135.714V12.328ZM135.714 8.968V7.968H134.714V8.968H135.714ZM144.482 0.647999H145.482V-0.352001H144.482V0.647999ZM144.482 4.008V5.008H145.482V4.008H144.482ZM135.426 4.008H134.426V5.008H135.426V4.008ZM135.426 0.647999V-0.352001H134.426V0.647999H135.426ZM144.738 17.64H145.738V16.64H144.738V17.64ZM144.738 21V22H145.738V21H144.738ZM135.426 21H134.426V22H135.426V21ZM135.426 17.64V16.64H134.426V17.64H135.426ZM133.602 1.648H138.21V-0.352001H133.602V1.648ZM137.21 0.647999V21H139.21V0.647999H137.21ZM138.21 20H133.602V22H138.21V20ZM134.602 21V0.647999H132.602V21H134.602ZM142.554 8.968V12.328H144.554V8.968H142.554ZM143.554 11.328H135.714V13.328H143.554V11.328ZM136.714 12.328V8.968H134.714V12.328H136.714ZM135.714 9.968H143.554V7.968H135.714V9.968ZM143.482 0.647999V4.008H145.482V0.647999H143.482ZM144.482 3.008H135.426V5.008H144.482V3.008ZM136.426 4.008V0.647999H134.426V4.008H136.426ZM135.426 1.648H144.482V-0.352001H135.426V1.648ZM143.738 17.64V21H145.738V17.64H143.738ZM144.738 20H135.426V22H144.738V20ZM136.426 21V17.64H134.426V21H136.426ZM135.426 18.64H144.738V16.64H135.426V18.64Z" fill="black" mask="url(#path-1-outside-1_607_2)"/>
</g>
<defs>
<filter id="filter0_d_607_2" x="0.407959" y="0.64801" width="148.33" height="28.352" filterUnits="userSpaceOnUse" color-interpolation-filters="sRGB">
<feFlood flood-opacity="0" result="BackgroundImageFix"/>
<feColorMatrix in="SourceAlpha" type="matrix" values="0 0 0 0 0 0 0 0 0 0 0 0 0 0 0 0 0 0 127 0" result="hardAlpha"/>
<feOffset dy="4"/>
<feGaussianBlur stdDeviation="2"/>
<feComposite in2="hardAlpha" operator="out"/>
<feColorMatrix type="matrix" values="0 0 0 0 0 0 0 0 0 0 0 0 0 0 0 0 0 0 0.25 0"/>
<feBlend mode="normal" in2="BackgroundImageFix" result="effect1_dropShadow_607_2"/>
<feBlend mode="normal" in="SourceGraphic" in2="effect1_dropShadow_607_2" result="shape"/>
</filter>
</defs>
</svg>
